<svg width="90" height="80" viewBox="0 0 118 96" fill="none" xmlns="http://www.w3.org/2000/svg">
<path d="M53.651 91.448C53.651 95.6952 56.3239 95.6952 58.9968 95.6952H106.04C110.317 96.2261 110.317 93.5716 110.317 91.448V65.9649C110.317 61.7177 108.713 61.1868 106.574 61.1868H97.4866L92.6754 54.2852H72.3614L67.0156 61.1868H58.9968C54.2925 61.1868 53.4728 64.3722 53.651 65.9649V91.448Z" fill="#69DC8A"/>
<path d="M74.1886 40.1324C74.1886 46.1235 72.7522 51.7791 70.205 56.7736C59.8146 57.6296 59.1734 61.2728 60.0922 68.8638C53.8196 73.8765 46.1641 76.8107 37.5103 76.8107C17.2535 76.8107 0.832031 60.3893 0.832031 40.1324C0.832031 19.8755 17.2535 3.4541 37.5103 3.4541C57.7672 3.4541 74.1886 19.8755 74.1886 40.1324Z" fill="#69DC8A"/>
<path d="M59.0193 30.1656C59.0193 21.9238 52.3377 15.2423 44.096 15.2423C35.8542 15.2423 29.1726 21.9238 29.1726 30.1656C29.1726 38.4074 35.8542 45.0889 44.096 45.0889C52.3377 45.0889 59.0193 38.4074 59.0193 30.1656Z" stroke="black" stroke-width="3.42034"/>
<path d="M58.651 87.448C58.651 91.6952 61.3239 91.6952 63.9968 91.6952H111.04C115.317 92.2261 115.317 89.5716 115.317 87.448V61.9649C115.317 57.7177 113.713 57.1868 111.574 57.1868H102.487L97.6754 50.2852H77.3614L72.0156 57.1868H63.9968C59.2925 57.1868 58.4728 60.3722 58.651 61.9649V87.448Z" stroke="black" stroke-opacity="0.97" stroke-width="3.42034"/>
<circle cx="86.9731" cy="73.0986" r="13.2349" stroke="black" stroke-opacity="0.97" stroke-width="2.56526"/>
<circle cx="86.9736" cy="73.0976" r="6.32181" stroke="black" stroke-opacity="0.97" stroke-width="2.56526"/>
<circle cx="86.9736" cy="73.0976" r="6.32181" stroke="black" stroke-opacity="0.97" stroke-width="2.56526"/>
</svg>
